<?xml version="1.0" encoding="UTF-8" standalone="no"?>
<!DOCTYPE svg PUBLIC "-//W3C//DTD SVG 1.1//EN"
 "http://www.w3.org/Graphics/SVG/1.1/DTD/svg11.dtd">
<!-- Generated by graphviz version 2.38.0 (20140413.2041)
 -->
<!-- Title: G Pages: 1 -->
<svg width="906pt" height="1070pt"
 viewBox="0.00 0.00 906.38 1070.00" xmlns="http://www.w3.org/2000/svg" xmlns:xlink="http://www.w3.org/1999/xlink">
<g id="graph0" class="graph" transform="scale(1 1) rotate(0) translate(4 1066)">
<title>G</title>
<polygon fill="none" stroke="none" points="-4,4 -4,-1066 902.382,-1066 902.382,4 -4,4"/>
<!-- sei2v7jxzge6zkctesumcyuepzd4khtj -->
<g id="node1" class="node"><title>sei2v7jxzge6zkctesumcyuepzd4khtj</title>
<path fill="lightblue" stroke="black" stroke-width="4" d="M281.382,-306C281.382,-306 179.382,-306 179.382,-306 173.382,-306 167.382,-300 167.382,-294 167.382,-294 167.382,-264 167.382,-264 167.382,-258 173.382,-252 179.382,-252 179.382,-252 281.382,-252 281.382,-252 287.382,-252 293.382,-258 293.382,-264 293.382,-264 293.382,-294 293.382,-294 293.382,-300 287.382,-306 281.382,-306"/>
<text text-anchor="middle" x="230.382" y="-272.8" font-family="Monaco" font-size="24.00">readline</text>
</g>
<!-- kmjncy3crg74ryzgl3zumt6jk2f44ed6 -->
<g id="node16" class="node"><title>kmjncy3crg74ryzgl3zumt6jk2f44ed6</title>
<path fill="lightblue" stroke="black" stroke-width="4" d="M234.382,-180C234.382,-180 136.382,-180 136.382,-180 130.382,-180 124.382,-174 124.382,-168 124.382,-168 124.382,-138 124.382,-138 124.382,-132 130.382,-126 136.382,-126 136.382,-126 234.382,-126 234.382,-126 240.382,-126 246.382,-132 246.382,-138 246.382,-138 246.382,-168 246.382,-168 246.382,-174 240.382,-180 234.382,-180"/>
<text text-anchor="middle" x="185.382" y="-146.8" font-family="Monaco" font-size="24.00">ncurses</text>
</g>
<!-- sei2v7jxzge6zkctesumcyuepzd4khtj&#45;&gt;kmjncy3crg74ryzgl3zumt6jk2f44ed6 -->
<g id="edge5" class="edge"><title>sei2v7jxzge6zkctesumcyuepzd4khtj&#45;&gt;kmjncy3crg74ryzgl3zumt6jk2f44ed6</title>
<path fill="none" stroke="black" stroke-width="4" d="M220.839,-251.703C214.306,-233.701 205.562,-209.608 198.392,-189.851"/>
<polygon fill="black" stroke="black" stroke-width="4" points="201.613,-188.465 194.912,-180.259 195.033,-190.853 201.613,-188.465"/>
</g>
<!-- 3ctx5yawoms2zr7thynslttosjc5mpyk -->
<g id="node2" class="node"><title>3ctx5yawoms2zr7thynslttosjc5mpyk</title>
<path fill="lightblue" stroke="black" stroke-width="4" d="M590.382,-810C590.382,-810 522.382,-810 522.382,-810 516.382,-810 510.382,-804 510.382,-798 510.382,-798 510.382,-768 510.382,-768 510.382,-762 516.382,-756 522.382,-756 522.382,-756 590.382,-756 590.382,-756 596.382,-756 602.382,-762 602.382,-768 602.382,-768 602.382,-798 602.382,-798 602.382,-804 596.382,-810 590.382,-810"/>
<text text-anchor="middle" x="556.382" y="-776.8" font-family="Monaco" font-size="24.00">libzip</text>
</g>
<!-- lhfrrg22foi2a76q5oqjclljxm6grabo -->
<g id="node15" class="node"><title>lhfrrg22foi2a76q5oqjclljxm6grabo</title>
<path fill="lightblue" stroke="black" stroke-width="4" d="M613.382,-558C613.382,-558 567.382,-558 567.382,-558 561.382,-558 555.382,-552 555.382,-546 555.382,-546 555.382,-516 555.382,-516 555.382,-510 561.382,-504 567.382,-504 567.382,-504 613.382,-504 613.382,-504 619.382,-504 625.382,-510 625.382,-516 625.382,-516 625.382,-546 625.382,-546 625.382,-552 619.382,-558 613.382,-558"/>
<text text-anchor="middle" x="590.382" y="-524.8" font-family="Monaco" font-size="24.00">zlib</text>
</g>
<!-- 3ctx5yawoms2zr7thynslttosjc5mpyk&#45;&gt;lhfrrg22foi2a76q5oqjclljxm6grabo -->
<g id="edge30" class="edge"><title>3ctx5yawoms2zr7thynslttosjc5mpyk&#45;&gt;lhfrrg22foi2a76q5oqjclljxm6grabo</title>
<path fill="none" stroke="black" stroke-width="4" d="M559.956,-755.718C566.065,-710.798 578.525,-619.182 585.455,-568.228"/>
<polygon fill="black" stroke="black" stroke-width="4" points="588.925,-568.685 586.805,-558.305 581.989,-567.742 588.925,-568.685"/>
</g>
<!-- hlqnuwozowcran4em4ymtgwa3um2gvea -->
<g id="node3" class="node"><title>hlqnuwozowcran4em4ymtgwa3um2gvea</title>
<path fill="lightblue" stroke="black" stroke-width="4" d="M739.882,-810C739.882,-810 670.882,-810 670.882,-810 664.882,-810 658.882,-804 658.882,-798 658.882,-798 658.882,-768 658.882,-768 658.882,-762 664.882,-756 670.882,-756 670.882,-756 739.882,-756 739.882,-756 745.882,-756 751.882,-762 751.882,-768 751.882,-768 751.882,-798 751.882,-798 751.882,-804 745.882,-810 739.882,-810"/>
<text text-anchor="middle" x="705.382" y="-776.8" font-family="Monaco" font-size="24.00">bzip2</text>
</g>
<!-- qqeyjc7m73itba4fd5bujefpubjmrqvn -->
<g id="node17" class="node"><title>qqeyjc7m73itba4fd5bujefpubjmrqvn</title>
<path fill="lightblue" stroke="black" stroke-width="4" d="M752.382,-684C752.382,-684 658.382,-684 658.382,-684 652.382,-684 646.382,-678 646.382,-672 646.382,-672 646.382,-642 646.382,-642 646.382,-636 652.382,-630 658.382,-630 658.382,-630 752.382,-630 752.382,-630 758.382,-630 764.382,-636 764.382,-642 764.382,-642 764.382,-672 764.382,-672 764.382,-678 758.382,-684 752.382,-684"/>
<text text-anchor="middle" x="705.382" y="-650.8" font-family="Monaco" font-size="24.00">diffutils</text>
</g>
<!-- hlqnuwozowcran4em4ymtgwa3um2gvea&#45;&gt;qqeyjc7m73itba4fd5bujefpubjmrqvn -->
<g id="edge17" class="edge"><title>hlqnuwozowcran4em4ymtgwa3um2gvea&#45;&gt;qqeyjc7m73itba4fd5bujefpubjmrqvn</title>
<path fill="none" stroke="black" stroke-width="4" d="M705.382,-755.703C705.382,-737.865 705.382,-714.047 705.382,-694.393"/>
<polygon fill="black" stroke="black" stroke-width="4" points="708.882,-694.259 705.382,-684.259 701.882,-694.259 708.882,-694.259"/>
</g>
<!-- 4lxfhrfdbj4p3q7aqjyah5l7ht6opvup -->
<g id="node4" class="node"><title>4lxfhrfdbj4p3q7aqjyah5l7ht6opvup</title>
<path fill="lightblue" stroke="black" stroke-width="4" d="M555.882,-1062C555.882,-1062 462.882,-1062 462.882,-1062 456.882,-1062 450.882,-1056 450.882,-1050 450.882,-1050 450.882,-1020 450.882,-1020 450.882,-1014 456.882,-1008 462.882,-1008 462.882,-1008 555.882,-1008 555.882,-1008 561.882,-1008 567.882,-1014 567.882,-1020 567.882,-1020 567.882,-1050 567.882,-1050 567.882,-1056 561.882,-1062 555.882,-1062"/>
<text text-anchor="middle" x="509.382" y="-1028.8" font-family="Monaco" font-size="24.00">libosrm</text>
</g>
<!-- 4lxfhrfdbj4p3q7aqjyah5l7ht6opvup&#45;&gt;3ctx5yawoms2zr7thynslttosjc5mpyk -->
<g id="edge18" class="edge"><title>4lxfhrfdbj4p3q7aqjyah5l7ht6opvup&#45;&gt;3ctx5yawoms2zr7thynslttosjc5mpyk</title>
<path fill="none" stroke="black" stroke-width="4" d="M514.323,-1007.72C522.768,-962.798 539.992,-871.182 549.571,-820.228"/>
<polygon fill="black" stroke="black" stroke-width="4" points="553.029,-820.779 551.437,-810.305 546.149,-819.486 553.029,-820.779"/>
</g>
<!-- 4lxfhrfdbj4p3q7aqjyah5l7ht6opvup&#45;&gt;hlqnuwozowcran4em4ymtgwa3um2gvea -->
<g id="edge10" class="edge"><title>4lxfhrfdbj4p3q7aqjyah5l7ht6opvup&#45;&gt;hlqnuwozowcran4em4ymtgwa3um2gvea</title>
<path fill="none" stroke="black" stroke-width="4" d="M568.074,-1017.12C608.117,-1002.4 658.731,-976.876 686.382,-936 709.508,-901.812 711.577,-853.21 709.621,-820.237"/>
<polygon fill="black" stroke="black" stroke-width="4" points="713.1,-819.83 708.866,-810.118 706.12,-820.351 713.1,-819.83"/>
</g>
<!-- oytuwsekyhdkpzgr23lpaikphlbi5b7i -->
<g id="node5" class="node"><title>oytuwsekyhdkpzgr23lpaikphlbi5b7i</title>
<path fill="lightblue" stroke="black" stroke-width="4" d="M441.882,-936C441.882,-936 334.882,-936 334.882,-936 328.882,-936 322.882,-930 322.882,-924 322.882,-924 322.882,-894 322.882,-894 322.882,-888 328.882,-882 334.882,-882 334.882,-882 441.882,-882 441.882,-882 447.882,-882 453.882,-888 453.882,-894 453.882,-894 453.882,-924 453.882,-924 453.882,-930 447.882,-936 441.882,-936"/>
<text text-anchor="middle" x="388.382" y="-902.8" font-family="Monaco" font-size="24.00">intel&#45;tbb</text>
</g>
<!-- 4lxfhrfdbj4p3q7aqjyah5l7ht6opvup&#45;&gt;oytuwsekyhdkpzgr23lpaikphlbi5b7i -->
<g id="edge12" class="edge"><title>4lxfhrfdbj4p3q7aqjyah5l7ht6opvup&#45;&gt;oytuwsekyhdkpzgr23lpaikphlbi5b7i</title>
<path fill="none" stroke="black" stroke-width="4" d="M483.721,-1007.7C465.433,-988.961 440.702,-963.617 421.011,-943.438"/>
<polygon fill="black" stroke="black" stroke-width="4" points="423.495,-940.972 414.006,-936.259 418.485,-945.861 423.495,-940.972"/>
</g>
<!-- 4ci7khqjynj75hmazed7ihqtmaovqw7m -->
<g id="node6" class="node"><title>4ci7khqjynj75hmazed7ihqtmaovqw7m</title>
<path fill="lightblue" stroke="black" stroke-width="4" d="M547.882,-54C547.882,-54 416.882,-54 416.882,-54 410.882,-54 404.882,-48 404.882,-42 404.882,-42 404.882,-12 404.882,-12 404.882,-6 410.882,-0 416.882,-0 416.882,-0 547.882,-0 547.882,-0 553.882,-0 559.882,-6 559.882,-12 559.882,-12 559.882,-42 559.882,-42 559.882,-48 553.882,-54 547.882,-54"/>
<text text-anchor="middle" x="482.382" y="-20.8" font-family="Monaco" font-size="24.00">pkg&#45;config</text>
</g>
<!-- 4lxfhrfdbj4p3q7aqjyah5l7ht6opvup&#45;&gt;4ci7khqjynj75hmazed7ihqtmaovqw7m -->
<g id="edge14" class="edge"><title>4lxfhrfdbj4p3q7aqjyah5l7ht6opvup&#45;&gt;4ci7khqjynj75hmazed7ihqtmaovqw7m</title>
<path fill="none" stroke="black" stroke-width="4" d="M504.679,-1007.83C496.943,-962.427 482.382,-866.072 482.382,-784 482.382,-784 482.382,-784 482.382,-278 482.382,-201.981 482.382,-112.959 482.382,-64.3105"/>
<polygon fill="black" stroke="black" stroke-width="4" points="485.882,-64.275 482.382,-54.275 478.882,-64.275 485.882,-64.275"/>
</g>
<!-- gaavhbirggngtur7ycfkgkctmeelrh4m -->
<g id="node8" class="node"><title>gaavhbirggngtur7ycfkgkctmeelrh4m</title>
<path fill="lightblue" stroke="black" stroke-width="4" d="M91.882,-432C91.882,-432 50.882,-432 50.882,-432 44.882,-432 38.882,-426 38.882,-420 38.882,-420 38.882,-390 38.882,-390 38.882,-384 44.882,-378 50.882,-378 50.882,-378 91.882,-378 91.882,-378 97.882,-378 103.882,-384 103.882,-390 103.882,-390 103.882,-420 103.882,-420 103.882,-426 97.882,-432 91.882,-432"/>
<text text-anchor="middle" x="71.382" y="-398.8" font-family="Monaco" font-size="24.00">lua</text>
</g>
<!-- 4lxfhrfdbj4p3q7aqjyah5l7ht6opvup&#45;&gt;gaavhbirggngtur7ycfkgkctmeelrh4m -->
<g id="edge1" class="edge"><title>4lxfhrfdbj4p3q7aqjyah5l7ht6opvup&#45;&gt;gaavhbirggngtur7ycfkgkctmeelrh4m</title>
<path fill="none" stroke="black" stroke-width="4" d="M450.596,-1027C333.733,-1009.48 83.382,-952.291 83.382,-784 83.382,-784 83.382,-784 83.382,-656 83.382,-579.893 77.7649,-490.904 74.2168,-442.284"/>
<polygon fill="black" stroke="black" stroke-width="4" points="77.7031,-441.969 73.4722,-432.255 70.7223,-442.487 77.7031,-441.969"/>
</g>
<!-- wmd32nzhhxeqfgedeexhnrero5ib4yoy -->
<g id="node9" class="node"><title>wmd32nzhhxeqfgedeexhnrero5ib4yoy</title>
<path fill="lightblue" stroke="black" stroke-width="4" d="M355.882,-810C355.882,-810 270.882,-810 270.882,-810 264.882,-810 258.882,-804 258.882,-798 258.882,-798 258.882,-768 258.882,-768 258.882,-762 264.882,-756 270.882,-756 270.882,-756 355.882,-756 355.882,-756 361.882,-756 367.882,-762 367.882,-768 367.882,-768 367.882,-798 367.882,-798 367.882,-804 361.882,-810 355.882,-810"/>
<text text-anchor="middle" x="313.382" y="-776.8" font-family="Monaco" font-size="24.00">cmake</text>
</g>
<!-- 4lxfhrfdbj4p3q7aqjyah5l7ht6opvup&#45;&gt;wmd32nzhhxeqfgedeexhnrero5ib4yoy -->
<g id="edge21" class="edge"><title>4lxfhrfdbj4p3q7aqjyah5l7ht6opvup&#45;&gt;wmd32nzhhxeqfgedeexhnrero5ib4yoy</title>
<path fill="none" stroke="black" stroke-width="4" d="M450.436,-1022.09C404.279,-1009.34 343.084,-984.058 313.382,-936 291.913,-901.262 296.4,-852.978 303.307,-820.22"/>
<polygon fill="black" stroke="black" stroke-width="4" points="306.789,-820.695 305.605,-810.166 299.965,-819.135 306.789,-820.695"/>
</g>
<!-- yv5oycqxwc3jwgqgxhmlbkstj7a7cfbv -->
<g id="node12" class="node"><title>yv5oycqxwc3jwgqgxhmlbkstj7a7cfbv</title>
<path fill="lightblue" stroke="black" stroke-width="4" d="M665.382,-936C665.382,-936 593.382,-936 593.382,-936 587.382,-936 581.382,-930 581.382,-924 581.382,-924 581.382,-894 581.382,-894 581.382,-888 587.382,-882 593.382,-882 593.382,-882 665.382,-882 665.382,-882 671.382,-882 677.382,-888 677.382,-894 677.382,-894 677.382,-924 677.382,-924 677.382,-930 671.382,-936 665.382,-936"/>
<text text-anchor="middle" x="629.382" y="-902.8" font-family="Monaco" font-size="24.00">boost</text>
</g>
<!-- 4lxfhrfdbj4p3q7aqjyah5l7ht6opvup&#45;&gt;yv5oycqxwc3jwgqgxhmlbkstj7a7cfbv -->
<g id="edge15" class="edge"><title>4lxfhrfdbj4p3q7aqjyah5l7ht6opvup&#45;&gt;yv5oycqxwc3jwgqgxhmlbkstj7a7cfbv</title>
<path fill="none" stroke="black" stroke-width="4" d="M534.831,-1007.7C552.888,-989.043 577.28,-963.839 596.765,-943.704"/>
<polygon fill="black" stroke="black" stroke-width="4" points="599.531,-945.879 603.97,-936.259 594.5,-941.011 599.531,-945.879"/>
</g>
<!-- 7muwaioqkbm6xumohledzmezawafxfh2 -->
<g id="node14" class="node"><title>7muwaioqkbm6xumohledzmezawafxfh2</title>
<path fill="lightblue" stroke="black" stroke-width="4" d="M886.382,-684C886.382,-684 794.382,-684 794.382,-684 788.382,-684 782.382,-678 782.382,-672 782.382,-672 782.382,-642 782.382,-642 782.382,-636 788.382,-630 794.382,-630 794.382,-630 886.382,-630 886.382,-630 892.382,-630 898.382,-636 898.382,-642 898.382,-642 898.382,-672 898.382,-672 898.382,-678 892.382,-684 886.382,-684"/>
<text text-anchor="middle" x="840.382" y="-650.8" font-family="Monaco" font-size="24.00">libxml2</text>
</g>
<!-- 4lxfhrfdbj4p3q7aqjyah5l7ht6opvup&#45;&gt;7muwaioqkbm6xumohledzmezawafxfh2 -->
<g id="edge29" class="edge"><title>4lxfhrfdbj4p3q7aqjyah5l7ht6opvup&#45;&gt;7muwaioqkbm6xumohledzmezawafxfh2</title>
<path fill="none" stroke="black" stroke-width="4" d="M568.166,-1017.18C612.069,-1002.06 671.038,-975.988 710.382,-936 779.474,-865.777 816.577,-751.971 831.857,-694.171"/>
<polygon fill="black" stroke="black" stroke-width="4" points="835.272,-694.944 834.376,-684.387 828.493,-693.199 835.272,-694.944"/>
</g>
<!-- oytuwsekyhdkpzgr23lpaikphlbi5b7i&#45;&gt;wmd32nzhhxeqfgedeexhnrero5ib4yoy -->
<g id="edge26" class="edge"><title>oytuwsekyhdkpzgr23lpaikphlbi5b7i&#45;&gt;wmd32nzhhxeqfgedeexhnrero5ib4yoy</title>
<path fill="none" stroke="black" stroke-width="4" d="M372.476,-881.703C361.439,-863.454 346.616,-838.946 334.577,-819.042"/>
<polygon fill="black" stroke="black" stroke-width="4" points="337.435,-817.005 329.265,-810.259 331.445,-820.627 337.435,-817.005"/>
</g>
<!-- nt4y7msb6keu4dol63zkafzimenf3o2d -->
<g id="node7" class="node"><title>nt4y7msb6keu4dol63zkafzimenf3o2d</title>
<path fill="lightblue" stroke="black" stroke-width="4" d="M252.882,-432C252.882,-432 179.882,-432 179.882,-432 173.882,-432 167.882,-426 167.882,-420 167.882,-420 167.882,-390 167.882,-390 167.882,-384 173.882,-378 179.882,-378 179.882,-378 252.882,-378 252.882,-378 258.882,-378 264.882,-384 264.882,-390 264.882,-390 264.882,-420 264.882,-420 264.882,-426 258.882,-432 252.882,-432"/>
<text text-anchor="middle" x="216.382" y="-398.8" font-family="Monaco" font-size="24.00">gdbm</text>
</g>
<!-- nt4y7msb6keu4dol63zkafzimenf3o2d&#45;&gt;sei2v7jxzge6zkctesumcyuepzd4khtj -->
<g id="edge28" class="edge"><title>nt4y7msb6keu4dol63zkafzimenf3o2d&#45;&gt;sei2v7jxzge6zkctesumcyuepzd4khtj</title>
<path fill="none" stroke="black" stroke-width="4" d="M219.351,-377.703C221.365,-359.865 224.054,-336.047 226.273,-316.393"/>
<polygon fill="black" stroke="black" stroke-width="4" points="229.773,-316.589 227.417,-306.259 222.817,-315.803 229.773,-316.589"/>
</g>
<!-- gaavhbirggngtur7ycfkgkctmeelrh4m&#45;&gt;sei2v7jxzge6zkctesumcyuepzd4khtj -->
<g id="edge13" class="edge"><title>gaavhbirggngtur7ycfkgkctmeelrh4m&#45;&gt;sei2v7jxzge6zkctesumcyuepzd4khtj</title>
<path fill="none" stroke="black" stroke-width="4" d="M103.942,-378.608C128.478,-359.472 162.309,-333.089 188.802,-312.427"/>
<polygon fill="black" stroke="black" stroke-width="4" points="191.037,-315.123 196.77,-306.213 186.732,-309.603 191.037,-315.123"/>
</g>
<!-- svmtcfxxfbhpxvuctn5uhnmu7bg3djf3 -->
<g id="node10" class="node"><title>svmtcfxxfbhpxvuctn5uhnmu7bg3djf3</title>
<path fill="lightblue" stroke="black" stroke-width="4" d="M98.882,-306C98.882,-306 29.882,-306 29.882,-306 23.882,-306 17.882,-300 17.882,-294 17.882,-294 17.882,-264 17.882,-264 17.882,-258 23.882,-252 29.882,-252 29.882,-252 98.882,-252 98.882,-252 104.882,-252 110.882,-258 110.882,-264 110.882,-264 110.882,-294 110.882,-294 110.882,-300 104.882,-306 98.882,-306"/>
<text text-anchor="middle" x="64.382" y="-272.8" font-family="Monaco" font-size="24.00">unzip</text>
</g>
<!-- gaavhbirggngtur7ycfkgkctmeelrh4m&#45;&gt;svmtcfxxfbhpxvuctn5uhnmu7bg3djf3 -->
<g id="edge25" class="edge"><title>gaavhbirggngtur7ycfkgkctmeelrh4m&#45;&gt;svmtcfxxfbhpxvuctn5uhnmu7bg3djf3</title>
<path fill="none" stroke="black" stroke-width="4" d="M69.8975,-377.703C68.8905,-359.865 67.5459,-336.047 66.4365,-316.393"/>
<polygon fill="black" stroke="black" stroke-width="4" points="69.9225,-316.046 65.8644,-306.259 62.9336,-316.441 69.9225,-316.046"/>
</g>
<!-- gaavhbirggngtur7ycfkgkctmeelrh4m&#45;&gt;kmjncy3crg74ryzgl3zumt6jk2f44ed6 -->
<g id="edge8" class="edge"><title>gaavhbirggngtur7ycfkgkctmeelrh4m&#45;&gt;kmjncy3crg74ryzgl3zumt6jk2f44ed6</title>
<path fill="none" stroke="black" stroke-width="4" d="M46.2441,-377.953C19.3866,-346.824 -16.2027,-293.713 8.38198,-252 31.3175,-213.085 75.8766,-188.537 114.546,-173.742"/>
<polygon fill="black" stroke="black" stroke-width="4" points="116.051,-176.918 124.234,-170.188 113.64,-170.346 116.051,-176.918"/>
</g>
<!-- wmd32nzhhxeqfgedeexhnrero5ib4yoy&#45;&gt;kmjncy3crg74ryzgl3zumt6jk2f44ed6 -->
<g id="edge24" class="edge"><title>wmd32nzhhxeqfgedeexhnrero5ib4yoy&#45;&gt;kmjncy3crg74ryzgl3zumt6jk2f44ed6</title>
<path fill="none" stroke="black" stroke-width="4" d="M278.589,-755.875C227.811,-714.469 139.382,-628.507 139.382,-532 139.382,-532 139.382,-532 139.382,-404 139.382,-335.919 145.083,-318.77 158.382,-252 162.512,-231.263 168.69,-208.471 174.095,-190.089"/>
<polygon fill="black" stroke="black" stroke-width="4" points="177.489,-190.955 177,-180.372 170.782,-188.95 177.489,-190.955"/>
</g>
<!-- nzljcv6on57zbp3fesnn5uz5icbgqdba -->
<g id="node19" class="node"><title>nzljcv6on57zbp3fesnn5uz5icbgqdba</title>
<path fill="lightblue" stroke="black" stroke-width="4" d="M398.882,-684C398.882,-684 301.882,-684 301.882,-684 295.882,-684 289.882,-678 289.882,-672 289.882,-672 289.882,-642 289.882,-642 289.882,-636 295.882,-630 301.882,-630 301.882,-630 398.882,-630 398.882,-630 404.882,-630 410.882,-636 410.882,-642 410.882,-642 410.882,-672 410.882,-672 410.882,-678 404.882,-684 398.882,-684"/>
<text text-anchor="middle" x="350.382" y="-650.8" font-family="Monaco" font-size="24.00">openssl</text>
</g>
<!-- wmd32nzhhxeqfgedeexhnrero5ib4yoy&#45;&gt;nzljcv6on57zbp3fesnn5uz5icbgqdba -->
<g id="edge19" class="edge"><title>wmd32nzhhxeqfgedeexhnrero5ib4yoy&#45;&gt;nzljcv6on57zbp3fesnn5uz5icbgqdba</title>
<path fill="none" stroke="black" stroke-width="4" d="M321.229,-755.703C326.6,-737.701 333.789,-713.608 339.684,-693.851"/>
<polygon fill="black" stroke="black" stroke-width="4" points="343.041,-694.843 342.547,-684.259 336.333,-692.841 343.041,-694.843"/>
</g>
<!-- wcl2wz72dhiu4b3oqsdjhp6jimltuyr4 -->
<g id="node11" class="node"><title>wcl2wz72dhiu4b3oqsdjhp6jimltuyr4</title>
<path fill="lightblue" stroke="black" stroke-width="4" d="M732.882,-558C732.882,-558 685.882,-558 685.882,-558 679.882,-558 673.882,-552 673.882,-546 673.882,-546 673.882,-516 673.882,-516 673.882,-510 679.882,-504 685.882,-504 685.882,-504 732.882,-504 732.882,-504 738.882,-504 744.882,-510 744.882,-516 744.882,-516 744.882,-546 744.882,-546 744.882,-552 738.882,-558 732.882,-558"/>
<text text-anchor="middle" x="709.382" y="-524.8" font-family="Monaco" font-size="24.00">libc</text>
</g>
<!-- yv5oycqxwc3jwgqgxhmlbkstj7a7cfbv&#45;&gt;hlqnuwozowcran4em4ymtgwa3um2gvea -->
<g id="edge4" class="edge"><title>yv5oycqxwc3jwgqgxhmlbkstj7a7cfbv&#45;&gt;hlqnuwozowcran4em4ymtgwa3um2gvea</title>
<path fill="none" stroke="black" stroke-width="4" d="M645.5,-881.703C656.684,-863.454 671.705,-838.946 683.905,-819.042"/>
<polygon fill="black" stroke="black" stroke-width="4" points="687.046,-820.614 689.288,-810.259 681.078,-816.956 687.046,-820.614"/>
</g>
<!-- yv5oycqxwc3jwgqgxhmlbkstj7a7cfbv&#45;&gt;lhfrrg22foi2a76q5oqjclljxm6grabo -->
<g id="edge27" class="edge"><title>yv5oycqxwc3jwgqgxhmlbkstj7a7cfbv&#45;&gt;lhfrrg22foi2a76q5oqjclljxm6grabo</title>
<path fill="none" stroke="black" stroke-width="4" d="M626.671,-881.859C619.849,-816.088 601.96,-643.628 594.136,-568.196"/>
<polygon fill="black" stroke="black" stroke-width="4" points="597.614,-567.803 593.101,-558.218 590.652,-568.525 597.614,-567.803"/>
</g>
<!-- pcbm3yzabqmr6r2x7nkeeltbhmsdtdn2 -->
<g id="node13" class="node"><title>pcbm3yzabqmr6r2x7nkeeltbhmsdtdn2</title>
<path fill="lightblue" stroke="black" stroke-width="4" d="M441.882,-432C441.882,-432 294.882,-432 294.882,-432 288.882,-432 282.882,-426 282.882,-420 282.882,-420 282.882,-390 282.882,-390 282.882,-384 288.882,-378 294.882,-378 294.882,-378 441.882,-378 441.882,-378 447.882,-378 453.882,-384 453.882,-390 453.882,-390 453.882,-420 453.882,-420 453.882,-426 447.882,-432 441.882,-432"/>
<text text-anchor="middle" x="368.382" y="-398.8" font-family="Monaco" font-size="24.00">berkeley&#45;db</text>
</g>
<!-- 7muwaioqkbm6xumohledzmezawafxfh2&#45;&gt;4ci7khqjynj75hmazed7ihqtmaovqw7m -->
<g id="edge6" class="edge"><title>7muwaioqkbm6xumohledzmezawafxfh2&#45;&gt;4ci7khqjynj75hmazed7ihqtmaovqw7m</title>
<path fill="none" stroke="black" stroke-width="4" d="M828.932,-629.833C820.795,-610.348 810.151,-582.921 803.382,-558 785.418,-491.859 777.382,-474.537 777.382,-406 777.382,-406 777.382,-406 777.382,-278 777.382,-166.915 654.133,-94.9855 566.963,-58.0042"/>
<polygon fill="black" stroke="black" stroke-width="4" points="568.163,-54.7127 557.586,-54.1008 565.473,-61.1751 568.163,-54.7127"/>
</g>
<!-- 7muwaioqkbm6xumohledzmezawafxfh2&#45;&gt;wcl2wz72dhiu4b3oqsdjhp6jimltuyr4 -->
<g id="edge22" class="edge"><title>7muwaioqkbm6xumohledzmezawafxfh2&#45;&gt;wcl2wz72dhiu4b3oqsdjhp6jimltuyr4</title>
<path fill="none" stroke="black" stroke-width="4" d="M812.6,-629.703C792.714,-610.879 765.791,-585.395 744.428,-565.173"/>
<polygon fill="black" stroke="black" stroke-width="4" points="746.792,-562.592 737.124,-558.259 741.98,-567.676 746.792,-562.592"/>
</g>
<!-- 7muwaioqkbm6xumohledzmezawafxfh2&#45;&gt;lhfrrg22foi2a76q5oqjclljxm6grabo -->
<g id="edge7" class="edge"><title>7muwaioqkbm6xumohledzmezawafxfh2&#45;&gt;lhfrrg22foi2a76q5oqjclljxm6grabo</title>
<path fill="none" stroke="black" stroke-width="4" d="M787.669,-629.854C742.291,-607.347 677.55,-575.235 634.772,-554.017"/>
<polygon fill="black" stroke="black" stroke-width="4" points="636.24,-550.839 625.726,-549.531 633.13,-557.11 636.24,-550.839"/>
</g>
<!-- es5bfszq6gwmlnxwem4evn3y6lqvxmsb -->
<g id="node18" class="node"><title>es5bfszq6gwmlnxwem4evn3y6lqvxmsb</title>
<path fill="lightblue" stroke="black" stroke-width="4" d="M856.382,-558C856.382,-558 824.382,-558 824.382,-558 818.382,-558 812.382,-552 812.382,-546 812.382,-546 812.382,-516 812.382,-516 812.382,-510 818.382,-504 824.382,-504 824.382,-504 856.382,-504 856.382,-504 862.382,-504 868.382,-510 868.382,-516 868.382,-516 868.382,-546 868.382,-546 868.382,-552 862.382,-558 856.382,-558"/>
<text text-anchor="middle" x="840.382" y="-524.8" font-family="Monaco" font-size="24.00">xz</text>
</g>
<!-- 7muwaioqkbm6xumohledzmezawafxfh2&#45;&gt;es5bfszq6gwmlnxwem4evn3y6lqvxmsb -->
<g id="edge11" class="edge"><title>7muwaioqkbm6xumohledzmezawafxfh2&#45;&gt;es5bfszq6gwmlnxwem4evn3y6lqvxmsb</title>
<path fill="none" stroke="black" stroke-width="4" d="M840.382,-629.703C840.382,-611.865 840.382,-588.047 840.382,-568.393"/>
<polygon fill="black" stroke="black" stroke-width="4" points="843.882,-568.259 840.382,-558.259 836.882,-568.259 843.882,-568.259"/>
</g>
<!-- kmjncy3crg74ryzgl3zumt6jk2f44ed6&#45;&gt;4ci7khqjynj75hmazed7ihqtmaovqw7m -->
<g id="edge3" class="edge"><title>kmjncy3crg74ryzgl3zumt6jk2f44ed6&#45;&gt;4ci7khqjynj75hmazed7ihqtmaovqw7m</title>
<path fill="none" stroke="black" stroke-width="4" d="M246.56,-126.457C294.18,-106.576 360.379,-78.9373 410.52,-58.0029"/>
<polygon fill="black" stroke="black" stroke-width="4" points="412.126,-61.1254 420.005,-54.0427 409.429,-54.6658 412.126,-61.1254"/>
</g>
<!-- qqeyjc7m73itba4fd5bujefpubjmrqvn&#45;&gt;wcl2wz72dhiu4b3oqsdjhp6jimltuyr4 -->
<g id="edge20" class="edge"><title>qqeyjc7m73itba4fd5bujefpubjmrqvn&#45;&gt;wcl2wz72dhiu4b3oqsdjhp6jimltuyr4</title>
<path fill="none" stroke="black" stroke-width="4" d="M706.23,-629.703C706.806,-611.865 707.574,-588.047 708.208,-568.393"/>
<polygon fill="black" stroke="black" stroke-width="4" points="711.711,-568.367 708.535,-558.259 704.714,-568.141 711.711,-568.367"/>
</g>
<!-- nzljcv6on57zbp3fesnn5uz5icbgqdba&#45;&gt;lhfrrg22foi2a76q5oqjclljxm6grabo -->
<g id="edge23" class="edge"><title>nzljcv6on57zbp3fesnn5uz5icbgqdba&#45;&gt;lhfrrg22foi2a76q5oqjclljxm6grabo</title>
<path fill="none" stroke="black" stroke-width="4" d="M400.987,-629.854C444.074,-607.592 505.348,-575.934 546.417,-554.715"/>
<polygon fill="black" stroke="black" stroke-width="4" points="548.094,-557.788 555.372,-550.088 544.881,-551.569 548.094,-557.788"/>
</g>
<!-- mnwzhejoikgkmg7uzs4vze7lgljt7xh7 -->
<g id="node20" class="node"><title>mnwzhejoikgkmg7uzs4vze7lgljt7xh7</title>
<path fill="lightblue" stroke="black" stroke-width="4" d="M375.882,-558C375.882,-558 324.882,-558 324.882,-558 318.882,-558 312.882,-552 312.882,-546 312.882,-546 312.882,-516 312.882,-516 312.882,-510 318.882,-504 324.882,-504 324.882,-504 375.882,-504 375.882,-504 381.882,-504 387.882,-510 387.882,-516 387.882,-516 387.882,-546 387.882,-546 387.882,-552 381.882,-558 375.882,-558"/>
<text text-anchor="middle" x="350.382" y="-524.8" font-family="Monaco" font-size="24.00">perl</text>
</g>
<!-- nzljcv6on57zbp3fesnn5uz5icbgqdba&#45;&gt;mnwzhejoikgkmg7uzs4vze7lgljt7xh7 -->
<g id="edge9" class="edge"><title>nzljcv6on57zbp3fesnn5uz5icbgqdba&#45;&gt;mnwzhejoikgkmg7uzs4vze7lgljt7xh7</title>
<path fill="none" stroke="black" stroke-width="4" d="M350.382,-629.703C350.382,-611.865 350.382,-588.047 350.382,-568.393"/>
<polygon fill="black" stroke="black" stroke-width="4" points="353.882,-568.259 350.382,-558.259 346.882,-568.259 353.882,-568.259"/>
</g>
<!-- mnwzhejoikgkmg7uzs4vze7lgljt7xh7&#45;&gt;nt4y7msb6keu4dol63zkafzimenf3o2d -->
<g id="edge16" class="edge"><title>mnwzhejoikgkmg7uzs4vze7lgljt7xh7&#45;&gt;nt4y7msb6keu4dol63zkafzimenf3o2d</title>
<path fill="none" stroke="black" stroke-width="4" d="M321.964,-503.703C301.622,-484.879 274.083,-459.395 252.23,-439.173"/>
<polygon fill="black" stroke="black" stroke-width="4" points="254.476,-436.482 244.759,-432.259 249.721,-441.62 254.476,-436.482"/>
</g>
<!-- mnwzhejoikgkmg7uzs4vze7lgljt7xh7&#45;&gt;pcbm3yzabqmr6r2x7nkeeltbhmsdtdn2 -->
<g id="edge2" class="edge"><title>mnwzhejoikgkmg7uzs4vze7lgljt7xh7&#45;&gt;pcbm3yzabqmr6r2x7nkeeltbhmsdtdn2</title>
<path fill="none" stroke="black" stroke-width="4" d="M354.199,-503.703C356.789,-485.865 360.246,-462.047 363.099,-442.393"/>
<polygon fill="black" stroke="black" stroke-width="4" points="366.597,-442.658 364.57,-432.259 359.67,-441.653 366.597,-442.658"/>
</g>
</g>
</svg>
