<?xml version="1.0" encoding="UTF-8" standalone="no"?>
<!-- Generated by graphviz version 2.38.0 (20140413.2041)
 -->

<!-- Title: G Pages: 1 -->

<svg
   xmlns:dc="http://purl.org/dc/elements/1.1/"
   xmlns:cc="http://creativecommons.org/ns#"
   xmlns:rdf="http://www.w3.org/1999/02/22-rdf-syntax-ns#"
   xmlns:svg="http://www.w3.org/2000/svg"
   xmlns="http://www.w3.org/2000/svg"
   xmlns:sodipodi="http://sodipodi.sourceforge.net/DTD/sodipodi-0.dtd"
   xmlns:inkscape="http://www.inkscape.org/namespaces/inkscape"
   width="950pt"
   height="566pt"
   viewBox="0.00 0.00 949.75 566.00"
   id="svg2"
   version="1.1"
   inkscape:version="0.91 r13725"
   sodipodi:docname="spack_libosrm_default.svg">
  <metadata
     id="metadata265">
    <rdf:RDF>
      <cc:Work
         rdf:about="">
        <dc:format>image/svg+xml</dc:format>
        <dc:type
           rdf:resource="http://purl.org/dc/dcmitype/StillImage" />
        <dc:title></dc:title>
      </cc:Work>
    </rdf:RDF>
  </metadata>
  <defs
     id="defs263" />
  <sodipodi:namedview
     pagecolor="#ffffff"
     bordercolor="#666666"
     borderopacity="1"
     objecttolerance="10"
     gridtolerance="10"
     guidetolerance="10"
     inkscape:pageopacity="0"
     inkscape:pageshadow="2"
     inkscape:window-width="855"
     inkscape:window-height="480"
     id="namedview261"
     showgrid="false"
     inkscape:zoom="0.27789474"
     inkscape:cx="1466.3826"
     inkscape:cy="353.75"
     inkscape:window-x="65"
     inkscape:window-y="24"
     inkscape:window-maximized="0"
     inkscape:current-layer="svg2" />
  <g
     id="graph0"
     class="graph"
     transform="scale(1 1) rotate(0) translate(4 562)">
    <title
       id="title5">G</title>
    <polygon
       fill="none"
       stroke="none"
       points="-4,4 -4,-562 945.747,-562 945.747,4 -4,4"
       id="polygon7" />
    <!-- tvcylzq6qic4korkcgfejjge7jna76mu -->
    <g
       id="node1"
       class="node">
      <title
         id="title10">tvcylzq6qic4korkcgfejjge7jna76mu</title>
      <path
         fill="lightblue"
         stroke="black"
         stroke-width="4"
         d="M658.747,-558C658.747,-558 565.747,-558 565.747,-558 559.747,-558 553.747,-552 553.747,-546 553.747,-546 553.747,-516 553.747,-516 553.747,-510 559.747,-504 565.747,-504 565.747,-504 658.747,-504 658.747,-504 664.747,-504 670.747,-510 670.747,-516 670.747,-516 670.747,-546 670.747,-546 670.747,-552 664.747,-558 658.747,-558"
         id="path12" />
      <text
         text-anchor="middle"
         x="612.247"
         y="-524.8"
         font-family="Monaco"
         font-size="24.00"
         id="text14">libosrm</text>
    </g>
    <!-- qxsf3oggadgntkz4mcgj5q753v476ykn -->
    <g
       id="node2"
       class="node">
      <title
         id="title17">qxsf3oggadgntkz4mcgj5q753v476ykn</title>
      <path
         fill="lightblue"
         stroke="black"
         stroke-width="4"
         d="M480.247,-432C480.247,-432 388.247,-432 388.247,-432 382.247,-432 376.247,-426 376.247,-420 376.247,-420 376.247,-390 376.247,-390 376.247,-384 382.247,-378 388.247,-378 388.247,-378 480.247,-378 480.247,-378 486.247,-378 492.247,-384 492.247,-390 492.247,-390 492.247,-420 492.247,-420 492.247,-426 486.247,-432 480.247,-432"
         id="path19" />
      <text
         text-anchor="middle"
         x="434.247"
         y="-398.8"
         font-family="Monaco"
         font-size="24.00"
         id="text21">libxml2</text>
    </g>
    <!-- tvcylzq6qic4korkcgfejjge7jna76mu&#45;&gt;qxsf3oggadgntkz4mcgj5q753v476ykn -->
    <g
       id="edge15"
       class="edge">
      <title
         id="title24">tvcylzq6qic4korkcgfejjge7jna76mu-&gt;qxsf3oggadgntkz4mcgj5q753v476ykn</title>
      <path
         fill="none"
         stroke="black"
         stroke-width="4"
         d="M574.498,-503.703C546.912,-484.485 509.36,-458.326 480.056,-437.912"
         id="path26" />
      <polygon
         fill="black"
         stroke="black"
         stroke-width="4"
         points="481.842,-434.891 471.636,-432.046 477.841,-440.634 481.842,-434.891"
         id="polygon28" />
    </g>
    <!-- begrqojcmfzoz5oy43kmwjvpxrwdu3fo -->
    <g
       id="node4"
       class="node">
      <title
         id="title31">begrqojcmfzoz5oy43kmwjvpxrwdu3fo</title>
      <path
         fill="lightblue"
         stroke="black"
         stroke-width="4"
         d="M897.747,-306C897.747,-306 812.747,-306 812.747,-306 806.747,-306 800.747,-300 800.747,-294 800.747,-294 800.747,-264 800.747,-264 800.747,-258 806.747,-252 812.747,-252 812.747,-252 897.747,-252 897.747,-252 903.747,-252 909.747,-258 909.747,-264 909.747,-264 909.747,-294 909.747,-294 909.747,-300 903.747,-306 897.747,-306"
         id="path33" />
      <text
         text-anchor="middle"
         x="855.247"
         y="-272.8"
         font-family="Monaco"
         font-size="24.00"
         id="text35">cmake</text>
    </g>
    <!-- tvcylzq6qic4korkcgfejjge7jna76mu&#45;&gt;begrqojcmfzoz5oy43kmwjvpxrwdu3fo -->
    <g
       id="edge12"
       class="edge">
      <title
         id="title38">tvcylzq6qic4korkcgfejjge7jna76mu-&gt;begrqojcmfzoz5oy43kmwjvpxrwdu3fo</title>
      <path
         fill="none"
         stroke="black"
         stroke-width="4"
         d="M654.789,-503.943C682.566,-485.764 718.66,-459.846 746.247,-432 781.969,-395.943 814.704,-347.252 834.783,-314.797"
         id="path40" />
      <polygon
         fill="black"
         stroke="black"
         stroke-width="4"
         points="837.871,-316.455 840.102,-306.097 831.899,-312.803 837.871,-316.455"
         id="polygon42" />
    </g>
    <!-- oytuwsekyhdkpzgr23lpaikphlbi5b7i -->
    <g
       id="node5"
       class="node">
      <title
         id="title45">oytuwsekyhdkpzgr23lpaikphlbi5b7i</title>
      <path
         fill="lightblue"
         stroke="black"
         stroke-width="4"
         d="M929.747,-432C929.747,-432 822.747,-432 822.747,-432 816.747,-432 810.747,-426 810.747,-420 810.747,-420 810.747,-390 810.747,-390 810.747,-384 816.747,-378 822.747,-378 822.747,-378 929.747,-378 929.747,-378 935.747,-378 941.747,-384 941.747,-390 941.747,-390 941.747,-420 941.747,-420 941.747,-426 935.747,-432 929.747,-432"
         id="path47" />
      <text
         text-anchor="middle"
         x="876.247"
         y="-398.8"
         font-family="Monaco"
         font-size="24.00"
         id="text49">intel-tbb</text>
    </g>
    <!-- tvcylzq6qic4korkcgfejjge7jna76mu&#45;&gt;oytuwsekyhdkpzgr23lpaikphlbi5b7i -->
    <g
       id="edge7"
       class="edge">
      <title
         id="title52">tvcylzq6qic4korkcgfejjge7jna76mu-&gt;oytuwsekyhdkpzgr23lpaikphlbi5b7i</title>
      <path
         fill="none"
         stroke="black"
         stroke-width="4"
         d="M667.912,-503.854C709.858,-484.152 767.473,-457.091 811.484,-436.419"
         id="path54" />
      <polygon
         fill="black"
         stroke="black"
         stroke-width="4"
         points="813.095,-439.529 820.658,-432.11 810.119,-433.193 813.095,-439.529"
         id="polygon56" />
    </g>
    <!-- uqlvynnadq4l4sdz7exavhyiyfetn76x -->
    <g
       id="node6"
       class="node">
      <title
         id="title59">uqlvynnadq4l4sdz7exavhyiyfetn76x</title>
      <path
         fill="lightblue"
         stroke="black"
         stroke-width="4"
         d="M194.747,-54C194.747,-54 63.7471,-54 63.7471,-54 57.7471,-54 51.7471,-48 51.7471,-42 51.7471,-42 51.7471,-12 51.7471,-12 51.7471,-6 57.7471,-0 63.7471,-0 63.7471,-0 194.747,-0 194.747,-0 200.747,-0 206.747,-6 206.747,-12 206.747,-12 206.747,-42 206.747,-42 206.747,-48 200.747,-54 194.747,-54"
         id="path61" />
      <text
         text-anchor="middle"
         x="129.247"
         y="-20.8"
         font-family="Monaco"
         font-size="24.00"
         id="text63">pkg-config</text>
    </g>
    <!-- tvcylzq6qic4korkcgfejjge7jna76mu&#45;&gt;uqlvynnadq4l4sdz7exavhyiyfetn76x -->
    <g
       id="edge8"
       class="edge">
      <title
         id="title66">tvcylzq6qic4korkcgfejjge7jna76mu-&gt;uqlvynnadq4l4sdz7exavhyiyfetn76x</title>
      <path
         fill="none"
         stroke="black"
         stroke-width="4"
         d="M553.718,-525.486C466.415,-516.924 298.615,-493.328 170.247,-432 89.2037,-393.281 51.2175,-386.923 12.2471,-306 -29.4388,-219.439 48.7273,-114.156 96.3609,-61.451"
         id="path68" />
      <polygon
         fill="black"
         stroke="black"
         stroke-width="4"
         points="98.9594,-63.796 103.149,-54.0648 93.8055,-59.0591 98.9594,-63.796"
         id="polygon70" />
    </g>
    <!-- 3ctx5yawoms2zr7thynslttosjc5mpyk -->
    <g
       id="node7"
       class="node">
      <title
         id="title73">3ctx5yawoms2zr7thynslttosjc5mpyk</title>
      <path
         fill="lightblue"
         stroke="black"
         stroke-width="4"
         d="M590.247,-432C590.247,-432 522.247,-432 522.247,-432 516.247,-432 510.247,-426 510.247,-420 510.247,-420 510.247,-390 510.247,-390 510.247,-384 516.247,-378 522.247,-378 522.247,-378 590.247,-378 590.247,-378 596.247,-378 602.247,-384 602.247,-390 602.247,-390 602.247,-420 602.247,-420 602.247,-426 596.247,-432 590.247,-432"
         id="path75" />
      <text
         text-anchor="middle"
         x="556.247"
         y="-398.8"
         font-family="Monaco"
         font-size="24.00"
         id="text77">libzip</text>
    </g>
    <!-- tvcylzq6qic4korkcgfejjge7jna76mu&#45;&gt;3ctx5yawoms2zr7thynslttosjc5mpyk -->
    <g
       id="edge17"
       class="edge">
      <title
         id="title80">tvcylzq6qic4korkcgfejjge7jna76mu-&gt;3ctx5yawoms2zr7thynslttosjc5mpyk</title>
      <path
         fill="none"
         stroke="black"
         stroke-width="4"
         d="M600.371,-503.703C592.204,-485.619 581.261,-461.387 572.316,-441.581"
         id="path82" />
      <polygon
         fill="black"
         stroke="black"
         stroke-width="4"
         points="575.412,-439.932 568.106,-432.259 569.032,-442.814 575.412,-439.932"
         id="polygon84" />
    </g>
    <!-- gaavhbirggngtur7ycfkgkctmeelrh4m -->
    <g
       id="node8"
       class="node">
      <title
         id="title87">gaavhbirggngtur7ycfkgkctmeelrh4m</title>
      <path
         fill="lightblue"
         stroke="black"
         stroke-width="4"
         d="M232.747,-432C232.747,-432 191.747,-432 191.747,-432 185.747,-432 179.747,-426 179.747,-420 179.747,-420 179.747,-390 179.747,-390 179.747,-384 185.747,-378 191.747,-378 191.747,-378 232.747,-378 232.747,-378 238.747,-378 244.747,-384 244.747,-390 244.747,-390 244.747,-420 244.747,-420 244.747,-426 238.747,-432 232.747,-432"
         id="path89" />
      <text
         text-anchor="middle"
         x="212.247"
         y="-398.8"
         font-family="Monaco"
         font-size="24.00"
         id="text91">lua</text>
    </g>
    <!-- tvcylzq6qic4korkcgfejjge7jna76mu&#45;&gt;gaavhbirggngtur7ycfkgkctmeelrh4m -->
    <g
       id="edge16"
       class="edge">
      <title
         id="title94">tvcylzq6qic4korkcgfejjge7jna76mu-&gt;gaavhbirggngtur7ycfkgkctmeelrh4m</title>
      <path
         fill="none"
         stroke="black"
         stroke-width="4"
         d="M553.655,-511.837C472.102,-486.555 326.323,-441.364 254.547,-419.113"
         id="path96" />
      <polygon
         fill="black"
         stroke="black"
         stroke-width="4"
         points="255.512,-415.748 244.924,-416.13 253.439,-422.434 255.512,-415.748"
         id="polygon98" />
    </g>
    <!-- 44w5m3qakcy5eevxdumdv7mzo3fbby3d -->
    <g
       id="node13"
       class="node">
      <title
         id="title101">44w5m3qakcy5eevxdumdv7mzo3fbby3d</title>
      <path
         fill="lightblue"
         stroke="black"
         stroke-width="4"
         d="M764.747,-306C764.747,-306 695.747,-306 695.747,-306 689.747,-306 683.747,-300 683.747,-294 683.747,-294 683.747,-264 683.747,-264 683.747,-258 689.747,-252 695.747,-252 695.747,-252 764.747,-252 764.747,-252 770.747,-252 776.747,-258 776.747,-264 776.747,-264 776.747,-294 776.747,-294 776.747,-300 770.747,-306 764.747,-306"
         id="path103" />
      <text
         text-anchor="middle"
         x="730.247"
         y="-272.8"
         font-family="Monaco"
         font-size="24.00"
         id="text105">bzip2</text>
    </g>
    <!-- tvcylzq6qic4korkcgfejjge7jna76mu&#45;&gt;44w5m3qakcy5eevxdumdv7mzo3fbby3d -->
    <g
       id="edge6"
       class="edge">
      <title
         id="title108">tvcylzq6qic4korkcgfejjge7jna76mu-&gt;44w5m3qakcy5eevxdumdv7mzo3fbby3d</title>
      <path
         fill="none"
         stroke="black"
         stroke-width="4"
         d="M657.447,-503.903C682.258,-486.89 710.839,-462.242 725.247,-432 742.592,-395.594 741.02,-348.524 736.93,-316.474"
         id="path110" />
      <polygon
         fill="black"
         stroke="black"
         stroke-width="4"
         points="740.344,-315.624 735.47,-306.217 733.414,-316.611 740.344,-315.624"
         id="polygon112" />
    </g>
    <!-- teztdxn6e7aqxjlnactwivwoyrza5uan -->
    <g
       id="node14"
       class="node">
      <title
         id="title115">teztdxn6e7aqxjlnactwivwoyrza5uan</title>
      <path
         fill="lightblue"
         stroke="black"
         stroke-width="4"
         d="M704.247,-432C704.247,-432 632.247,-432 632.247,-432 626.247,-432 620.247,-426 620.247,-420 620.247,-420 620.247,-390 620.247,-390 620.247,-384 626.247,-378 632.247,-378 632.247,-378 704.247,-378 704.247,-378 710.247,-378 716.247,-384 716.247,-390 716.247,-390 716.247,-420 716.247,-420 716.247,-426 710.247,-432 704.247,-432"
         id="path117" />
      <text
         text-anchor="middle"
         x="668.247"
         y="-398.8"
         font-family="Monaco"
         font-size="24.00"
         id="text119">boost</text>
    </g>
    <!-- tvcylzq6qic4korkcgfejjge7jna76mu&#45;&gt;teztdxn6e7aqxjlnactwivwoyrza5uan -->
    <g
       id="edge9"
       class="edge">
      <title
         id="title122">tvcylzq6qic4korkcgfejjge7jna76mu-&gt;teztdxn6e7aqxjlnactwivwoyrza5uan</title>
      <path
         fill="none"
         stroke="black"
         stroke-width="4"
         d="M624.123,-503.703C632.29,-485.619 643.233,-461.387 652.178,-441.581"
         id="path124" />
      <polygon
         fill="black"
         stroke="black"
         stroke-width="4"
         points="655.462,-442.814 656.388,-432.259 649.082,-439.932 655.462,-442.814"
         id="polygon126" />
    </g>
    <!-- qxsf3oggadgntkz4mcgj5q753v476ykn&#45;&gt;uqlvynnadq4l4sdz7exavhyiyfetn76x -->
    <g
       id="edge21"
       class="edge">
      <title
         id="title129">qxsf3oggadgntkz4mcgj5q753v476ykn-&gt;uqlvynnadq4l4sdz7exavhyiyfetn76x</title>
      <path
         fill="none"
         stroke="black"
         stroke-width="4"
         d="M466.795,-377.777C500.4,-347.376 544.618,-295.83 519.247,-252 454.549,-140.23 310.657,-79.3827 216.909,-50.3129"
         id="path131" />
      <polygon
         fill="black"
         stroke="black"
         stroke-width="4"
         points="217.736,-46.9061 207.15,-47.3451 215.699,-53.6033 217.736,-46.9061"
         id="polygon133" />
    </g>
    <!-- z4e64mz266lqpha4xan6llhzenjygi36 -->
    <g
       id="node10"
       class="node">
      <title
         id="title136">z4e64mz266lqpha4xan6llhzenjygi36</title>
      <path
         fill="lightblue"
         stroke="black"
         stroke-width="4"
         d="M358.247,-306C358.247,-306 326.247,-306 326.247,-306 320.247,-306 314.247,-300 314.247,-294 314.247,-294 314.247,-264 314.247,-264 314.247,-258 320.247,-252 326.247,-252 326.247,-252 358.247,-252 358.247,-252 364.247,-252 370.247,-258 370.247,-264 370.247,-264 370.247,-294 370.247,-294 370.247,-300 364.247,-306 358.247,-306"
         id="path138" />
      <text
         text-anchor="middle"
         x="342.247"
         y="-272.8"
         font-family="Monaco"
         font-size="24.00"
         id="text140">xz</text>
    </g>
    <!-- qxsf3oggadgntkz4mcgj5q753v476ykn&#45;&gt;z4e64mz266lqpha4xan6llhzenjygi36 -->
    <g
       id="edge13"
       class="edge">
      <title
         id="title143">qxsf3oggadgntkz4mcgj5q753v476ykn-&gt;z4e64mz266lqpha4xan6llhzenjygi36</title>
      <path
         fill="none"
         stroke="black"
         stroke-width="4"
         d="M414.736,-377.703C401.075,-359.29 382.686,-334.504 367.847,-314.505"
         id="path145" />
      <polygon
         fill="black"
         stroke="black"
         stroke-width="4"
         points="370.499,-312.205 361.73,-306.259 364.877,-316.376 370.499,-312.205"
         id="polygon147" />
    </g>
    <!-- 2lu3ocrr3xhmxxowxsuglfwtzhhjcwnr -->
    <g
       id="node11"
       class="node">
      <title
         id="title150">2lu3ocrr3xhmxxowxsuglfwtzhhjcwnr</title>
      <path
         fill="lightblue"
         stroke="black"
         stroke-width="4"
         d="M498.247,-306C498.247,-306 400.247,-306 400.247,-306 394.247,-306 388.247,-300 388.247,-294 388.247,-294 388.247,-264 388.247,-264 388.247,-258 394.247,-252 400.247,-252 400.247,-252 498.247,-252 498.247,-252 504.247,-252 510.247,-258 510.247,-264 510.247,-264 510.247,-294 510.247,-294 510.247,-300 504.247,-306 498.247,-306"
         id="path152" />
      <text
         text-anchor="middle"
         x="449.247"
         y="-272.8"
         font-family="Monaco"
         font-size="24.00"
         id="text154">libiconv</text>
    </g>
    <!-- qxsf3oggadgntkz4mcgj5q753v476ykn&#45;&gt;2lu3ocrr3xhmxxowxsuglfwtzhhjcwnr -->
    <g
       id="edge20"
       class="edge">
      <title
         id="title157">qxsf3oggadgntkz4mcgj5q753v476ykn-&gt;2lu3ocrr3xhmxxowxsuglfwtzhhjcwnr</title>
      <path
         fill="none"
         stroke="black"
         stroke-width="4"
         d="M437.428,-377.703C439.586,-359.865 442.467,-336.047 444.845,-316.393"
         id="path159" />
      <polygon
         fill="black"
         stroke="black"
         stroke-width="4"
         points="448.344,-316.607 446.071,-306.259 441.395,-315.767 448.344,-316.607"
         id="polygon161" />
    </g>
    <!-- lhfrrg22foi2a76q5oqjclljxm6grabo -->
    <g
       id="node12"
       class="node">
      <title
         id="title164">lhfrrg22foi2a76q5oqjclljxm6grabo</title>
      <path
         fill="lightblue"
         stroke="black"
         stroke-width="4"
         d="M624.247,-306C624.247,-306 578.247,-306 578.247,-306 572.247,-306 566.247,-300 566.247,-294 566.247,-294 566.247,-264 566.247,-264 566.247,-258 572.247,-252 578.247,-252 578.247,-252 624.247,-252 624.247,-252 630.247,-252 636.247,-258 636.247,-264 636.247,-264 636.247,-294 636.247,-294 636.247,-300 630.247,-306 624.247,-306"
         id="path166" />
      <text
         text-anchor="middle"
         x="601.247"
         y="-272.8"
         font-family="Monaco"
         font-size="24.00"
         id="text168">zlib</text>
    </g>
    <!-- qxsf3oggadgntkz4mcgj5q753v476ykn&#45;&gt;lhfrrg22foi2a76q5oqjclljxm6grabo -->
    <g
       id="edge4"
       class="edge">
      <title
         id="title171">qxsf3oggadgntkz4mcgj5q753v476ykn-&gt;lhfrrg22foi2a76q5oqjclljxm6grabo</title>
      <path
         fill="none"
         stroke="black"
         stroke-width="4"
         d="M469.663,-377.703C495.434,-358.568 530.473,-332.551 557.915,-312.175"
         id="path173" />
      <polygon
         fill="black"
         stroke="black"
         stroke-width="4"
         points="560.226,-314.818 566.168,-306.046 556.053,-309.198 560.226,-314.818"
         id="polygon175" />
    </g>
    <!-- sei2v7jxzge6zkctesumcyuepzd4khtj -->
    <g
       id="node3"
       class="node">
      <title
         id="title178">sei2v7jxzge6zkctesumcyuepzd4khtj</title>
      <path
         fill="lightblue"
         stroke="black"
         stroke-width="4"
         d="M135.247,-306C135.247,-306 33.2471,-306 33.2471,-306 27.2471,-306 21.2471,-300 21.2471,-294 21.2471,-294 21.2471,-264 21.2471,-264 21.2471,-258 27.2471,-252 33.2471,-252 33.2471,-252 135.247,-252 135.247,-252 141.247,-252 147.247,-258 147.247,-264 147.247,-264 147.247,-294 147.247,-294 147.247,-300 141.247,-306 135.247,-306"
         id="path180" />
      <text
         text-anchor="middle"
         x="84.2471"
         y="-272.8"
         font-family="Monaco"
         font-size="24.00"
         id="text182">readline</text>
    </g>
    <!-- kmjncy3crg74ryzgl3zumt6jk2f44ed6 -->
    <g
       id="node9"
       class="node">
      <title
         id="title185">kmjncy3crg74ryzgl3zumt6jk2f44ed6</title>
      <path
         fill="lightblue"
         stroke="black"
         stroke-width="4"
         d="M178.247,-180C178.247,-180 80.2471,-180 80.2471,-180 74.2471,-180 68.2471,-174 68.2471,-168 68.2471,-168 68.2471,-138 68.2471,-138 68.2471,-132 74.2471,-126 80.2471,-126 80.2471,-126 178.247,-126 178.247,-126 184.247,-126 190.247,-132 190.247,-138 190.247,-138 190.247,-168 190.247,-168 190.247,-174 184.247,-180 178.247,-180"
         id="path187" />
      <text
         text-anchor="middle"
         x="129.247"
         y="-146.8"
         font-family="Monaco"
         font-size="24.00"
         id="text189">ncurses</text>
    </g>
    <!-- sei2v7jxzge6zkctesumcyuepzd4khtj&#45;&gt;kmjncy3crg74ryzgl3zumt6jk2f44ed6 -->
    <g
       id="edge11"
       class="edge">
      <title
         id="title192">sei2v7jxzge6zkctesumcyuepzd4khtj-&gt;kmjncy3crg74ryzgl3zumt6jk2f44ed6</title>
      <path
         fill="none"
         stroke="black"
         stroke-width="4"
         d="M93.7904,-251.703C100.323,-233.701 109.067,-209.608 116.237,-189.851"
         id="path194" />
      <polygon
         fill="black"
         stroke="black"
         stroke-width="4"
         points="119.596,-190.853 119.717,-180.259 113.016,-188.465 119.596,-190.853"
         id="polygon196" />
    </g>
    <!-- oytuwsekyhdkpzgr23lpaikphlbi5b7i&#45;&gt;begrqojcmfzoz5oy43kmwjvpxrwdu3fo -->
    <g
       id="edge19"
       class="edge">
      <title
         id="title199">oytuwsekyhdkpzgr23lpaikphlbi5b7i-&gt;begrqojcmfzoz5oy43kmwjvpxrwdu3fo</title>
      <path
         fill="none"
         stroke="black"
         stroke-width="4"
         d="M871.794,-377.703C868.759,-359.783 864.702,-335.827 861.365,-316.122"
         id="path201" />
      <polygon
         fill="black"
         stroke="black"
         stroke-width="4"
         points="864.815,-315.534 859.694,-306.259 857.913,-316.703 864.815,-315.534"
         id="polygon203" />
    </g>
    <!-- 3ctx5yawoms2zr7thynslttosjc5mpyk&#45;&gt;lhfrrg22foi2a76q5oqjclljxm6grabo -->
    <g
       id="edge18"
       class="edge">
      <title
         id="title206">3ctx5yawoms2zr7thynslttosjc5mpyk-&gt;lhfrrg22foi2a76q5oqjclljxm6grabo</title>
      <path
         fill="none"
         stroke="black"
         stroke-width="4"
         d="M565.79,-377.703C572.323,-359.701 581.067,-335.608 588.237,-315.851"
         id="path208" />
      <polygon
         fill="black"
         stroke="black"
         stroke-width="4"
         points="591.596,-316.853 591.717,-306.259 585.016,-314.465 591.596,-316.853"
         id="polygon210" />
    </g>
    <!-- gaavhbirggngtur7ycfkgkctmeelrh4m&#45;&gt;sei2v7jxzge6zkctesumcyuepzd4khtj -->
    <g
       id="edge2"
       class="edge">
      <title
         id="title213">gaavhbirggngtur7ycfkgkctmeelrh4m-&gt;sei2v7jxzge6zkctesumcyuepzd4khtj</title>
      <path
         fill="none"
         stroke="black"
         stroke-width="4"
         d="M185.102,-377.703C165.755,-358.961 139.594,-333.617 118.764,-313.438"
         id="path215" />
      <polygon
         fill="black"
         stroke="black"
         stroke-width="4"
         points="120.971,-310.703 111.353,-306.259 116.101,-315.731 120.971,-310.703"
         id="polygon217" />
    </g>
    <!-- gaavhbirggngtur7ycfkgkctmeelrh4m&#45;&gt;kmjncy3crg74ryzgl3zumt6jk2f44ed6 -->
    <g
       id="edge1"
       class="edge">
      <title
         id="title220">gaavhbirggngtur7ycfkgkctmeelrh4m-&gt;kmjncy3crg74ryzgl3zumt6jk2f44ed6</title>
      <path
         fill="none"
         stroke="black"
         stroke-width="4"
         d="M203.521,-377.718C188.577,-332.705 158.064,-240.799 141.169,-189.91"
         id="path222" />
      <polygon
         fill="black"
         stroke="black"
         stroke-width="4"
         points="144.453,-188.693 137.98,-180.305 137.81,-190.898 144.453,-188.693"
         id="polygon224" />
    </g>
    <!-- svmtcfxxfbhpxvuctn5uhnmu7bg3djf3 -->
    <g
       id="node15"
       class="node">
      <title
         id="title227">svmtcfxxfbhpxvuctn5uhnmu7bg3djf3</title>
      <path
         fill="lightblue"
         stroke="black"
         stroke-width="4"
         d="M284.747,-306C284.747,-306 215.747,-306 215.747,-306 209.747,-306 203.747,-300 203.747,-294 203.747,-294 203.747,-264 203.747,-264 203.747,-258 209.747,-252 215.747,-252 215.747,-252 284.747,-252 284.747,-252 290.747,-252 296.747,-258 296.747,-264 296.747,-264 296.747,-294 296.747,-294 296.747,-300 290.747,-306 284.747,-306"
         id="path229" />
      <text
         text-anchor="middle"
         x="250.247"
         y="-272.8"
         font-family="Monaco"
         font-size="24.00"
         id="text231">unzip</text>
    </g>
    <!-- gaavhbirggngtur7ycfkgkctmeelrh4m&#45;&gt;svmtcfxxfbhpxvuctn5uhnmu7bg3djf3 -->
    <g
       id="edge14"
       class="edge">
      <title
         id="title234">gaavhbirggngtur7ycfkgkctmeelrh4m-&gt;svmtcfxxfbhpxvuctn5uhnmu7bg3djf3</title>
      <path
         fill="none"
         stroke="black"
         stroke-width="4"
         d="M220.306,-377.703C225.823,-359.701 233.206,-335.608 239.26,-315.851"
         id="path236" />
      <polygon
         fill="black"
         stroke="black"
         stroke-width="4"
         points="242.616,-316.846 242.2,-306.259 235.923,-314.795 242.616,-316.846"
         id="polygon238" />
    </g>
    <!-- kmjncy3crg74ryzgl3zumt6jk2f44ed6&#45;&gt;uqlvynnadq4l4sdz7exavhyiyfetn76x -->
    <g
       id="edge5"
       class="edge">
      <title
         id="title241">kmjncy3crg74ryzgl3zumt6jk2f44ed6-&gt;uqlvynnadq4l4sdz7exavhyiyfetn76x</title>
      <path
         fill="none"
         stroke="black"
         stroke-width="4"
         d="M129.247,-125.703C129.247,-107.865 129.247,-84.0471 129.247,-64.3935"
         id="path243" />
      <polygon
         fill="black"
         stroke="black"
         stroke-width="4"
         points="132.747,-64.2593 129.247,-54.2593 125.747,-64.2593 132.747,-64.2593"
         id="polygon245" />
    </g>
    <!-- teztdxn6e7aqxjlnactwivwoyrza5uan&#45;&gt;lhfrrg22foi2a76q5oqjclljxm6grabo -->
    <g
       id="edge10"
       class="edge">
      <title
         id="title248">teztdxn6e7aqxjlnactwivwoyrza5uan-&gt;lhfrrg22foi2a76q5oqjclljxm6grabo</title>
      <path
         fill="none"
         stroke="black"
         stroke-width="4"
         d="M654.038,-377.703C644.222,-359.537 631.055,-335.167 620.326,-315.311"
         id="path250" />
      <polygon
         fill="black"
         stroke="black"
         stroke-width="4"
         points="623.269,-313.393 615.436,-306.259 617.11,-316.721 623.269,-313.393"
         id="polygon252" />
    </g>
    <!-- teztdxn6e7aqxjlnactwivwoyrza5uan&#45;&gt;44w5m3qakcy5eevxdumdv7mzo3fbby3d -->
    <g
       id="edge3"
       class="edge">
      <title
         id="title255">teztdxn6e7aqxjlnactwivwoyrza5uan-&gt;44w5m3qakcy5eevxdumdv7mzo3fbby3d</title>
      <path
         fill="none"
         stroke="black"
         stroke-width="4"
         d="M681.396,-377.703C690.479,-359.537 702.664,-335.167 712.592,-315.311"
         id="path257" />
      <polygon
         fill="black"
         stroke="black"
         stroke-width="4"
         points="715.776,-316.769 717.117,-306.259 709.515,-313.638 715.776,-316.769"
         id="polygon259" />
    </g>
  </g>
</svg>
